<?xml version="1.0" standalone="no"?>
<!DOCTYPE svg PUBLIC "-//W3C//DTD SVG 20010904//EN"
 "http://www.w3.org/TR/2001/REC-SVG-20010904/DTD/svg10.dtd">
<svg version="1.0" xmlns="http://www.w3.org/2000/svg"
 width="190.000000pt" height="190.000000pt" viewBox="0 0 190.000000 190.000000"
 preserveAspectRatio="xMidYMid meet">
<metadata>
Created by potrace 1.11, written by Peter Selinger 2001-2013
</metadata>
<g transform="translate(0.000000,190.000000) scale(0.100000,-0.100000)"
fill="#000000" stroke="none">
<path d="M848 1865 c-2 -2 -24 -6 -50 -9 -171 -23 -369 -126 -505 -263 -186
-187 -275 -415 -268 -682 4 -140 7 -159 49 -284 96 -282 328 -506 619 -597 49
-15 96 -19 266 -20 185 -1 214 2 276 21 308 94 538 329 630 644 37 123 43 301
16 430 -80 384 -361 666 -746 746 -76 16 -274 26 -287 14z m297 -219 c255 -70
455 -267 525 -516 111 -398 -113 -799 -508 -912 -59 -17 -103 -22 -192 -22
-120 0 -152 4 -235 31 -187 60 -347 199 -438 380 -91 178 -98 424 -18 614 95
226 318 405 544 436 23 3 44 7 46 9 10 10 223 -6 276 -20z"/>
<path d="M828 1494 c-162 -38 -310 -161 -381 -318 -33 -71 -47 -156 -42 -256
13 -307 258 -541 566 -542 244 0 468 177 533 422 21 79 14 237 -14 319 -93
275 -385 440 -662 375z m207 -195 c108 -28 203 -105 250 -204 25 -53 29 -72
29 -155 1 -83 -2 -102 -25 -150 -37 -78 -87 -131 -161 -171 -60 -32 -68 -34
-163 -34 -91 0 -105 3 -158 29 -223 113 -275 417 -102 591 85 84 220 123 330
94z"/>
</g>
</svg>
